<?xml version="1.0" standalone="no"?><!DOCTYPE svg PUBLIC "-//W3C//DTD SVG 1.1//EN" "http://www.w3.org/Graphics/SVG/1.1/DTD/svg11.dtd"><svg t="1707909158685" class="icon" viewBox="0 0 1024 1024" version="1.1" xmlns="http://www.w3.org/2000/svg" p-id="6858" xmlns:xlink="http://www.w3.org/1999/xlink" width="20" height="20"><path d="M32 174.8h960c17.7 0 32-14.3 32-32s-14.3-32-32-32H32c-17.7 0-32 14.3-32 32s14.3 32 32 32zM32 544h882.7l-93.1 93.1c-12.5 12.5-12.5 32.8 0 45.3s32.8 12.5 45.3 0l147.7-147.7c12.5-12.5 12.5-32.8 0-45.3L866.9 341.7c-6.2-6.2-14.4-9.4-22.6-9.4s-16.4 3.1-22.6 9.4c-12.5 12.5-12.5 32.8 0 45.3l93.1 93.1H32c-17.7 0-32 14.3-32 32S14.3 544 32 544z m960 305.2H32c-17.7 0-32 14.3-32 32s14.3 32 32 32h960c17.7 0 32-14.3 32-32s-14.3-32-32-32z" fill="" p-id="6859"></path></svg>