<?xml version="1.0" standalone="no"?><!DOCTYPE svg PUBLIC "-//W3C//DTD SVG 1.1//EN" "http://www.w3.org/Graphics/SVG/1.1/DTD/svg11.dtd"><svg t="1706978141965" class="icon" viewBox="0 0 1024 1024" version="1.1" xmlns="http://www.w3.org/2000/svg" p-id="12166" xmlns:xlink="http://www.w3.org/1999/xlink" width="20" height="20"><path d="M512 960A448 448 0 1 0 512 64a448 448 0 0 0 0 896z m0 64A512 512 0 1 1 512 0a512 512 0 0 1 0 1024z" p-id="12167"></path><path d="M679.552 363.392a32 32 0 1 1 48.896 41.216l-216 256a32 32 0 0 1-46.72 2.368L297.728 500.032a32 32 0 1 1 44.544-45.888l143.36 139.008 193.92-229.76z" p-id="12168"></path></svg>