<?xml version="1.0" standalone="no"?><!DOCTYPE svg PUBLIC "-//W3C//DTD SVG 1.1//EN" "http://www.w3.org/Graphics/SVG/1.1/DTD/svg11.dtd"><svg t="1704961684523" class="icon" viewBox="0 0 1024 1024" version="1.1" xmlns="http://www.w3.org/2000/svg" p-id="6775" xmlns:xlink="http://www.w3.org/1999/xlink" width="20" height="20"><path d="M225.28 245.732266 225.28 245.732266 225.28 614.427734C225.28 625.750632 234.417435 634.88 245.689034 634.88L778.310966 634.88C789.480364 634.88 798.72 625.723209 798.72 614.427734L798.72 245.732266C798.72 234.409368 789.582565 225.28 778.310966 225.28L245.689034 225.28C234.519636 225.28 225.28 234.436791 225.28 245.732266L225.28 245.732266 225.28 245.732266ZM665.6 798.72 665.6 737.253291C665.6 725.973584 656.415764 716.8 645.086435 716.8L378.913565 716.8C367.593886 716.8 358.4 725.95725 358.4 737.253291L358.4 798.72 225.28 798.72 225.28 839.68 798.72 839.68 798.72 798.72 665.6 798.72 665.6 798.72ZM184.32 245.732266C184.32 211.83819 211.875005 184.32 245.689034 184.32L778.310966 184.32C812.22452 184.32 839.68 211.808155 839.68 245.732266L839.68 614.427734C839.68 648.32181 812.124992 675.84 778.310966 675.84L245.689034 675.84C211.775478 675.84 184.32 648.351845 184.32 614.427734L184.32 245.732266 184.32 245.732266ZM307.2 491.52 348.16 491.52 348.16 593.92 307.2 593.92 307.2 491.52 307.2 491.52ZM430.08 419.84 471.04 419.84 471.04 593.92 430.08 593.92 430.08 419.84 430.08 419.84ZM552.96 317.44 593.92 317.44 593.92 593.92 552.96 593.92 552.96 317.44 552.96 317.44ZM675.84 378.88 716.8 378.88 716.8 593.92 675.84 593.92 675.84 378.88 675.84 378.88Z" fill="#666666" p-id="6776"></path></svg>