<?xml version="1.0" standalone="no"?><!DOCTYPE svg PUBLIC "-//W3C//DTD SVG 1.1//EN" "http://www.w3.org/Graphics/SVG/1.1/DTD/svg11.dtd"><svg t="1704555326373" class="icon" viewBox="0 0 1024 1024" version="1.1" xmlns="http://www.w3.org/2000/svg" p-id="4415" xmlns:xlink="http://www.w3.org/1999/xlink" width="20" height="20"><path d="M127.04 254.912c0-23.488 19.072-42.56 42.56-42.56h682.688a42.56 42.56 0 0 1 0 85.12H169.6a42.56 42.56 0 0 1-42.56-42.56zM127.04 510.912c0-23.488 19.072-42.56 42.56-42.56h682.688a42.56 42.56 0 0 1 0 85.12H169.6a42.56 42.56 0 0 1-42.56-42.56zM169.6 724.352a42.56 42.56 0 0 0 0 85.12h682.688a42.56 42.56 0 0 0 0-85.12H169.6z" fill="#333333" p-id="4416"></path></svg>