<?xml version="1.0" standalone="no"?><!DOCTYPE svg PUBLIC "-//W3C//DTD SVG 1.1//EN" "http://www.w3.org/Graphics/SVG/1.1/DTD/svg11.dtd"><svg t="1704961724283" class="icon" viewBox="0 0 1024 1024" version="1.1" xmlns="http://www.w3.org/2000/svg" p-id="8121" xmlns:xlink="http://www.w3.org/1999/xlink" width="20" height="20"><path d="M131.33913 819.2c-69.008696-86.817391-104.626087-191.443478-104.626087-302.747826 0-269.356522 220.382609-489.73913 489.739131-489.739131 73.46087 0 144.695652 15.582609 209.252174 46.747827l-20.034783 40.069565c-60.104348-28.93913-124.66087-42.295652-191.443478-42.295652-244.869565 0-445.217391 200.347826-445.217391 445.217391 0 100.173913 33.391304 195.895652 95.721739 276.034783l-33.391305 26.713043zM516.452174 1006.191304c-69.008696 0-135.791304-13.356522-198.121739-42.295652l17.808695-40.069565c55.652174 24.486957 115.756522 37.843478 178.086957 37.843478 244.869565 0 445.217391-200.347826 445.217391-445.217391 0-100.173913-33.391304-195.895652-93.495652-273.808696l35.617391-26.713043c69.008696 86.817391 104.626087 191.443478 104.626087 302.747826 0 267.130435-218.156522 487.513043-489.73913 487.513043z" p-id="8122"></path><path d="M180.313043 828.104348c11.130435 0 20.034783 8.904348 20.034783 20.034782s-8.904348 20.034783-20.034783 20.034783-20.034783-8.904348-20.034782-20.034783 8.904348-20.034783 20.034782-20.034782m0-44.521739c-35.617391 0-64.556522 28.93913-64.556521 64.556521S144.695652 912.695652 180.313043 912.695652s64.556522-28.93913 64.556522-64.556522-28.93913-64.556522-64.556522-64.556521zM345.043478 209.252174c11.130435 0 20.034783 8.904348 20.034783 20.034783s-8.904348 20.034783-20.034783 20.034782-20.034783-8.904348-20.034782-20.034782 8.904348-20.034783 20.034782-20.034783m0-44.521739c-35.617391 0-64.556522 28.93913-64.556521 64.556522s28.93913 64.556522 64.556521 64.556521 64.556522-28.93913 64.556522-64.556521-28.93913-64.556522-64.556522-64.556522zM868.173913 469.704348c11.130435 0 20.034783 8.904348 20.034783 20.034782s-8.904348 20.034783-20.034783 20.034783-20.034783-8.904348-20.034783-20.034783 8.904348-20.034783 20.034783-20.034782m0-44.521739c-35.617391 0-64.556522 28.93913-64.556522 64.556521s28.93913 64.556522 64.556522 64.556522c35.617391 0 64.556522-28.93913 64.556522-64.556522s-31.165217-64.556522-64.556522-64.556521zM394.017391 816.973913c11.130435 0 20.034783 8.904348 20.034783 20.034783s-8.904348 20.034783-20.034783 20.034782-20.034783-8.904348-20.034782-20.034782 8.904348-20.034783 20.034782-20.034783m0-44.521739c-35.617391 0-64.556522 28.93913-64.556521 64.556522s28.93913 64.556522 64.556521 64.556521 64.556522-28.93913 64.556522-64.556521-31.165217-64.556522-64.556522-64.556522zM850.365217 169.182609c11.130435 0 20.034783 8.904348 20.034783 20.034782s-8.904348 20.034783-20.034783 20.034783-20.034783-8.904348-20.034782-20.034783c2.226087-11.130435 11.130435-20.034783 20.034782-20.034782m0-44.521739c-35.617391 0-64.556522 28.93913-64.556521 64.556521s28.93913 64.556522 64.556521 64.556522 64.556522-28.93913 64.556522-64.556522-28.93913-64.556522-64.556522-64.556521z" p-id="8123"></path><path d="M166.956522 612.173913c-6.678261-28.93913-11.130435-57.878261-11.130435-86.817391 0-113.530435 53.426087-222.608696 146.921739-291.617392l26.713044 35.617392c-82.365217 60.104348-126.886957 153.6-126.886957 253.773913 0 26.713043 2.226087 51.2 8.904348 75.686956l-44.521739 13.356522zM520.904348 888.208696c-33.391304 0-64.556522-4.452174-97.947826-13.356522l11.130435-42.295652c26.713043 6.678261 55.652174 11.130435 84.591304 11.130435 91.269565 0 178.086957-37.843478 238.191304-106.852174l33.391305 28.93913c-69.008696 77.913043-166.956522 122.434783-269.356522 122.434783zM830.330435 451.895652c-24.486957-109.078261-106.852174-195.895652-213.704348-231.513043l13.356522-42.295652c120.208696 37.843478 213.704348 140.243478 242.643478 262.67826l-42.295652 11.130435z" p-id="8124"></path><path d="M431.86087 385.113043l62.330434 35.617392v71.234782l-62.330434 35.617392-62.330435-35.617392v-71.234782l62.330435-35.617392m0-51.2l-106.852174 62.330435v122.434783l106.852174 62.330435 106.852173-62.330435v-122.434783L431.86087 333.913043z" p-id="8125"></path><path d="M601.043478 385.113043l62.330435 35.617392v71.234782L601.043478 527.582609l-62.330435-35.617392v-71.234782l62.330435-35.617392m0-51.2l-106.852174 62.330435v122.434783L601.043478 578.782609l106.852174-62.330435v-122.434783L601.043478 333.913043z" p-id="8126"></path><path d="M516.452174 532.034783l62.330435 35.617391v71.234783l-62.330435 35.617391-62.330435-35.617391v-71.234783l62.330435-35.617391m0-51.2l-106.852174 62.330434v122.434783l106.852174 62.330435 106.852174-62.330435v-122.434783l-106.852174-62.330434z" p-id="8127"></path></svg>